<?xml version="1.0" encoding="UTF-8" standalone="no"?>
<!-- Created with Inkscape (http://www.inkscape.org/) -->

<svg
   xmlns:dc="http://purl.org/dc/elements/1.1/"
   xmlns:cc="http://creativecommons.org/ns#"
   xmlns:rdf="http://www.w3.org/1999/02/22-rdf-syntax-ns#"
   xmlns:svg="http://www.w3.org/2000/svg"
   xmlns="http://www.w3.org/2000/svg"
   xmlns:sodipodi="http://sodipodi.sourceforge.net/DTD/sodipodi-0.dtd"
   xmlns:inkscape="http://www.inkscape.org/namespaces/inkscape"
   width="283.46457"
   height="283.46457"
   id="svg2"
   version="1.1"
   inkscape:version="0.48.4 r9939"
   sodipodi:docname="boxex.gcode">
  <sodipodi:namedview
     id="base"
     pagecolor="#ffffff"
     bordercolor="#666666"
     borderopacity="1.0"
     inkscape:pageopacity="0.0"
     inkscape:pageshadow="2"
     inkscape:zoom="1"
     inkscape:cx="141.73228"
     inkscape:cy="141.73228"
     inkscape:document-units="mm"
     inkscape:current-layer="layer1"
     showgrid="false"
     units="mm"
     inkscape:window-width="463"
     inkscape:window-height="423"
     inkscape:window-x="130"
     inkscape:window-y="130"
     inkscape:window-maximized="0" />
  <defs
     id="defs4">
    <inkscape:perspective
       sodipodi:type="inkscape:persp3d"
       inkscape:vp_x="0 : 141.73228 : 1"
       inkscape:vp_y="0 : 1000 : 0"
       inkscape:vp_z="283.46457 : 141.73228 : 1"
       inkscape:persp3d-origin="141.73228 : 94.48819 : 1"
       id="perspective3274" />
  </defs>
  <metadata
     id="metadata7">
    <rdf:RDF>
      <cc:Work
         rdf:about="">
        <dc:format>image/svg+xml</dc:format>
        <dc:type
           rdf:resource="http://purl.org/dc/dcmitype/StillImage" />
        <dc:title></dc:title>
      </cc:Work>
    </rdf:RDF>
  </metadata>
  <g
     transform="translate(0,-768.89763)"
     id="layer1"
     inkscape:groupmode="layer"
     inkscape:label="Layer 1">
    <path
       inkscape:connector-curvature="0"
       id="rect3012"
       d="m 35.57437,822.18854 35.150473,0 0,17.43393 -35.150473,0 z"
       style="fill:none;stroke:#ff0000;stroke-width:0.28259814;stroke-miterlimit:4;stroke-opacity:1" />
    <path
       id="rect3014"
       d="m 121.85719,34.537064 43.98588,0 0,23.133316 -43.98588,0 z"
       style="fill:none;stroke:#ff0000;stroke-width:0.35433072;stroke-miterlimit:4;stroke-opacity:1"
       transform="translate(0,768.89763)" />
    <path
       id="rect3016"
       d="m 224.16508,31.60467 40.40185,0 0,26.71735 -40.40185,0 z"
       style="fill:none;stroke:#ff0000;stroke-width:0.35433072;stroke-miterlimit:4;stroke-opacity:1"
       transform="translate(0,768.89763)" />
    <path
       id="rect3018"
       d="m 12.055389,76.242195 35.840348,0 0,30.301385 -35.840348,0 z"
       style="fill:none;stroke:#ff0000;stroke-width:0.35433072;stroke-miterlimit:4;stroke-opacity:1"
       transform="translate(0,768.89763)" />
    <path
       id="rect3020"
       d="m 88.623405,80.803696 64.838445,0 0,26.065704 -64.838445,0 z"
       style="fill:none;stroke:#ff0000;stroke-width:0.35433072;stroke-miterlimit:4;stroke-opacity:1"
       transform="translate(0,768.89763)" />
    <path
       id="rect3022"
       d="m 220.58105,83.736084 47.2441,0 0,30.953026 -47.2441,0 z"
       style="fill:none;stroke:#ff0000;stroke-width:0.35433072;stroke-miterlimit:4;stroke-opacity:1"
       transform="translate(0,768.89763)" />
    <path
       id="rect3024"
       d="m 23.459137,138.14825 189.628023,0 0,50.50231 -189.628023,0 z"
       style="fill:none;stroke:#ff0000;stroke-width:0.35433072;stroke-miterlimit:4;stroke-opacity:1"
       transform="translate(0,768.89763)" />
    <path
       id="rect3026"
       d="m 65.490089,151.50693 86.016841,0 0,24.76242 -86.016841,0 z"
       style="fill:none;stroke:#ff0000;stroke-width:0.35433072;stroke-miterlimit:4;stroke-opacity:1"
       transform="translate(0,768.89763)" />
    <path
       id="rect3028"
       d="m 16.291067,206.2449 210.154773,0 0,7.16807 -210.154773,0 z"
       style="fill:none;stroke:#ff0000;stroke-width:0.35433072;stroke-miterlimit:4;stroke-opacity:1"
       transform="translate(0,768.89763)" />
    <path
       id="rect3030"
       d="m 238.1754,128.04779 24.4366,0 0,144.66467 -24.4366,0 z"
       style="fill:none;stroke:#ff0000;stroke-width:0.35433072;stroke-miterlimit:4;stroke-opacity:1"
       transform="translate(0,768.89763)" />
    <path
       id="rect3032"
       d="m 24.762423,231.9848 183.437427,0 0,27.04317 -183.437427,0 z"
       style="fill:none;stroke:#ff0000;stroke-width:0.35433072;stroke-miterlimit:4;stroke-opacity:1"
       transform="translate(0,768.89763)" />
    <g
       id="g3062"
       transform="translate(-158.26772,-108.26771)"
       inkscape:label="Grid_Polar:X6:Y5">
      <g
         id="g3064"
         inkscape:label="MajorXGridlines">
        <path
           id="path3066"
           d="M 100.0,0 L 100.0,500.0"
           style="stroke:#000000;stroke-width:2.0;fill:none"
           inkscape:label="MajorXDiv1" />
        <path
           id="path3068"
           d="M 200.0,0 L 200.0,500.0"
           style="stroke:#000000;stroke-width:2.0;fill:none"
           inkscape:label="MajorXDiv2" />
        <path
           id="path3070"
           d="M 300.0,0 L 300.0,500.0"
           style="stroke:#000000;stroke-width:2.0;fill:none"
           inkscape:label="MajorXDiv3" />
        <path
           id="path3072"
           d="M 400.0,0 L 400.0,500.0"
           style="stroke:#000000;stroke-width:2.0;fill:none"
           inkscape:label="MajorXDiv4" />
        <path
           id="path3074"
           d="M 500.0,0 L 500.0,500.0"
           style="stroke:#000000;stroke-width:2.0;fill:none"
           inkscape:label="MajorXDiv5" />
      </g>
      <g
         id="g3076"
         inkscape:label="MajorYGridlines">
        <path
           id="path3078"
           d="M 0,100.0 L 600.0,100.0"
           style="stroke:#000000;stroke-width:2.0;fill:none"
           inkscape:label="MajorYDiv1" />
        <path
           id="path3080"
           d="M 0,200.0 L 600.0,200.0"
           style="stroke:#000000;stroke-width:2.0;fill:none"
           inkscape:label="MajorYDiv2" />
        <path
           id="path3082"
           d="M 0,300.0 L 600.0,300.0"
           style="stroke:#000000;stroke-width:2.0;fill:none"
           inkscape:label="MajorYDiv3" />
        <path
           id="path3084"
           d="M 0,400.0 L 600.0,400.0"
           style="stroke:#000000;stroke-width:2.0;fill:none"
           inkscape:label="MajorYDiv4" />
      </g>
      <g
         id="g3086"
         inkscape:label="MinorXGridlines">
        <path
           id="path3088"
           d="M 50.0,0 L 50.0,500.0"
           style="stroke:#000000;stroke-width:1.0;fill:none"
           inkscape:label="MinorXDiv0:1" />
        <path
           id="path3090"
           d="M 150.0,0 L 150.0,500.0"
           style="stroke:#000000;stroke-width:1.0;fill:none"
           inkscape:label="MinorXDiv1:1" />
        <path
           id="path3092"
           d="M 250.0,0 L 250.0,500.0"
           style="stroke:#000000;stroke-width:1.0;fill:none"
           inkscape:label="MinorXDiv2:1" />
        <path
           id="path3094"
           d="M 350.0,0 L 350.0,500.0"
           style="stroke:#000000;stroke-width:1.0;fill:none"
           inkscape:label="MinorXDiv3:1" />
        <path
           id="path3096"
           d="M 450.0,0 L 450.0,500.0"
           style="stroke:#000000;stroke-width:1.0;fill:none"
           inkscape:label="MinorXDiv4:1" />
        <path
           id="path3098"
           d="M 550.0,0 L 550.0,500.0"
           style="stroke:#000000;stroke-width:1.0;fill:none"
           inkscape:label="MinorXDiv5:1" />
      </g>
      <g
         id="g3100"
         inkscape:label="SubMinorXGridlines">
        <path
           id="path3102"
           d="M 10.0,0 L 10.0,500.0"
           style="stroke:#000000;stroke-width:0.300000011921;fill:none"
           inkscape:label="SubminorXDiv0:0:1" />
        <path
           id="path3104"
           d="M 20.0,0 L 20.0,500.0"
           style="stroke:#000000;stroke-width:0.300000011921;fill:none"
           inkscape:label="SubminorXDiv0:0:2" />
        <path
           id="path3106"
           d="M 30.0,0 L 30.0,500.0"
           style="stroke:#000000;stroke-width:0.300000011921;fill:none"
           inkscape:label="SubminorXDiv0:0:3" />
        <path
           id="path3108"
           d="M 40.0,0 L 40.0,500.0"
           style="stroke:#000000;stroke-width:0.300000011921;fill:none"
           inkscape:label="SubminorXDiv0:0:4" />
        <path
           id="path3110"
           d="M 60.0,0 L 60.0,500.0"
           style="stroke:#000000;stroke-width:0.300000011921;fill:none"
           inkscape:label="SubminorXDiv0:1:1" />
        <path
           id="path3112"
           d="M 70.0,0 L 70.0,500.0"
           style="stroke:#000000;stroke-width:0.300000011921;fill:none"
           inkscape:label="SubminorXDiv0:1:2" />
        <path
           id="path3114"
           d="M 80.0,0 L 80.0,500.0"
           style="stroke:#000000;stroke-width:0.300000011921;fill:none"
           inkscape:label="SubminorXDiv0:1:3" />
        <path
           id="path3116"
           d="M 90.0,0 L 90.0,500.0"
           style="stroke:#000000;stroke-width:0.300000011921;fill:none"
           inkscape:label="SubminorXDiv0:1:4" />
        <path
           id="path3118"
           d="M 110.0,0 L 110.0,500.0"
           style="stroke:#000000;stroke-width:0.300000011921;fill:none"
           inkscape:label="SubminorXDiv1:0:1" />
        <path
           id="path3120"
           d="M 120.0,0 L 120.0,500.0"
           style="stroke:#000000;stroke-width:0.300000011921;fill:none"
           inkscape:label="SubminorXDiv1:0:2" />
        <path
           id="path3122"
           d="M 130.0,0 L 130.0,500.0"
           style="stroke:#000000;stroke-width:0.300000011921;fill:none"
           inkscape:label="SubminorXDiv1:0:3" />
        <path
           id="path3124"
           d="M 140.0,0 L 140.0,500.0"
           style="stroke:#000000;stroke-width:0.300000011921;fill:none"
           inkscape:label="SubminorXDiv1:0:4" />
        <path
           id="path3126"
           d="M 160.0,0 L 160.0,500.0"
           style="stroke:#000000;stroke-width:0.300000011921;fill:none"
           inkscape:label="SubminorXDiv1:1:1" />
        <path
           id="path3128"
           d="M 170.0,0 L 170.0,500.0"
           style="stroke:#000000;stroke-width:0.300000011921;fill:none"
           inkscape:label="SubminorXDiv1:1:2" />
        <path
           id="path3130"
           d="M 180.0,0 L 180.0,500.0"
           style="stroke:#000000;stroke-width:0.300000011921;fill:none"
           inkscape:label="SubminorXDiv1:1:3" />
        <path
           id="path3132"
           d="M 190.0,0 L 190.0,500.0"
           style="stroke:#000000;stroke-width:0.300000011921;fill:none"
           inkscape:label="SubminorXDiv1:1:4" />
        <path
           id="path3134"
           d="M 210.0,0 L 210.0,500.0"
           style="stroke:#000000;stroke-width:0.300000011921;fill:none"
           inkscape:label="SubminorXDiv2:0:1" />
        <path
           id="path3136"
           d="M 220.0,0 L 220.0,500.0"
           style="stroke:#000000;stroke-width:0.300000011921;fill:none"
           inkscape:label="SubminorXDiv2:0:2" />
        <path
           id="path3138"
           d="M 230.0,0 L 230.0,500.0"
           style="stroke:#000000;stroke-width:0.300000011921;fill:none"
           inkscape:label="SubminorXDiv2:0:3" />
        <path
           id="path3140"
           d="M 240.0,0 L 240.0,500.0"
           style="stroke:#000000;stroke-width:0.300000011921;fill:none"
           inkscape:label="SubminorXDiv2:0:4" />
        <path
           id="path3142"
           d="M 260.0,0 L 260.0,500.0"
           style="stroke:#000000;stroke-width:0.300000011921;fill:none"
           inkscape:label="SubminorXDiv2:1:1" />
        <path
           id="path3144"
           d="M 270.0,0 L 270.0,500.0"
           style="stroke:#000000;stroke-width:0.300000011921;fill:none"
           inkscape:label="SubminorXDiv2:1:2" />
        <path
           id="path3146"
           d="M 280.0,0 L 280.0,500.0"
           style="stroke:#000000;stroke-width:0.300000011921;fill:none"
           inkscape:label="SubminorXDiv2:1:3" />
        <path
           id="path3148"
           d="M 290.0,0 L 290.0,500.0"
           style="stroke:#000000;stroke-width:0.300000011921;fill:none"
           inkscape:label="SubminorXDiv2:1:4" />
        <path
           id="path3150"
           d="M 310.0,0 L 310.0,500.0"
           style="stroke:#000000;stroke-width:0.300000011921;fill:none"
           inkscape:label="SubminorXDiv3:0:1" />
        <path
           id="path3152"
           d="M 320.0,0 L 320.0,500.0"
           style="stroke:#000000;stroke-width:0.300000011921;fill:none"
           inkscape:label="SubminorXDiv3:0:2" />
        <path
           id="path3154"
           d="M 330.0,0 L 330.0,500.0"
           style="stroke:#000000;stroke-width:0.300000011921;fill:none"
           inkscape:label="SubminorXDiv3:0:3" />
        <path
           id="path3156"
           d="M 340.0,0 L 340.0,500.0"
           style="stroke:#000000;stroke-width:0.300000011921;fill:none"
           inkscape:label="SubminorXDiv3:0:4" />
        <path
           id="path3158"
           d="M 360.0,0 L 360.0,500.0"
           style="stroke:#000000;stroke-width:0.300000011921;fill:none"
           inkscape:label="SubminorXDiv3:1:1" />
        <path
           id="path3160"
           d="M 370.0,0 L 370.0,500.0"
           style="stroke:#000000;stroke-width:0.300000011921;fill:none"
           inkscape:label="SubminorXDiv3:1:2" />
        <path
           id="path3162"
           d="M 380.0,0 L 380.0,500.0"
           style="stroke:#000000;stroke-width:0.300000011921;fill:none"
           inkscape:label="SubminorXDiv3:1:3" />
        <path
           id="path3164"
           d="M 390.0,0 L 390.0,500.0"
           style="stroke:#000000;stroke-width:0.300000011921;fill:none"
           inkscape:label="SubminorXDiv3:1:4" />
        <path
           id="path3166"
           d="M 410.0,0 L 410.0,500.0"
           style="stroke:#000000;stroke-width:0.300000011921;fill:none"
           inkscape:label="SubminorXDiv4:0:1" />
        <path
           id="path3168"
           d="M 420.0,0 L 420.0,500.0"
           style="stroke:#000000;stroke-width:0.300000011921;fill:none"
           inkscape:label="SubminorXDiv4:0:2" />
        <path
           id="path3170"
           d="M 430.0,0 L 430.0,500.0"
           style="stroke:#000000;stroke-width:0.300000011921;fill:none"
           inkscape:label="SubminorXDiv4:0:3" />
        <path
           id="path3172"
           d="M 440.0,0 L 440.0,500.0"
           style="stroke:#000000;stroke-width:0.300000011921;fill:none"
           inkscape:label="SubminorXDiv4:0:4" />
        <path
           id="path3174"
           d="M 460.0,0 L 460.0,500.0"
           style="stroke:#000000;stroke-width:0.300000011921;fill:none"
           inkscape:label="SubminorXDiv4:1:1" />
        <path
           id="path3176"
           d="M 470.0,0 L 470.0,500.0"
           style="stroke:#000000;stroke-width:0.300000011921;fill:none"
           inkscape:label="SubminorXDiv4:1:2" />
        <path
           id="path3178"
           d="M 480.0,0 L 480.0,500.0"
           style="stroke:#000000;stroke-width:0.300000011921;fill:none"
           inkscape:label="SubminorXDiv4:1:3" />
        <path
           id="path3180"
           d="M 490.0,0 L 490.0,500.0"
           style="stroke:#000000;stroke-width:0.300000011921;fill:none"
           inkscape:label="SubminorXDiv4:1:4" />
        <path
           id="path3182"
           d="M 510.0,0 L 510.0,500.0"
           style="stroke:#000000;stroke-width:0.300000011921;fill:none"
           inkscape:label="SubminorXDiv5:0:1" />
        <path
           id="path3184"
           d="M 520.0,0 L 520.0,500.0"
           style="stroke:#000000;stroke-width:0.300000011921;fill:none"
           inkscape:label="SubminorXDiv5:0:2" />
        <path
           id="path3186"
           d="M 530.0,0 L 530.0,500.0"
           style="stroke:#000000;stroke-width:0.300000011921;fill:none"
           inkscape:label="SubminorXDiv5:0:3" />
        <path
           id="path3188"
           d="M 540.0,0 L 540.0,500.0"
           style="stroke:#000000;stroke-width:0.300000011921;fill:none"
           inkscape:label="SubminorXDiv5:0:4" />
        <path
           id="path3190"
           d="M 560.0,0 L 560.0,500.0"
           style="stroke:#000000;stroke-width:0.300000011921;fill:none"
           inkscape:label="SubminorXDiv5:1:1" />
        <path
           id="path3192"
           d="M 570.0,0 L 570.0,500.0"
           style="stroke:#000000;stroke-width:0.300000011921;fill:none"
           inkscape:label="SubminorXDiv5:1:2" />
        <path
           id="path3194"
           d="M 580.0,0 L 580.0,500.0"
           style="stroke:#000000;stroke-width:0.300000011921;fill:none"
           inkscape:label="SubminorXDiv5:1:3" />
        <path
           id="path3196"
           d="M 590.0,0 L 590.0,500.0"
           style="stroke:#000000;stroke-width:0.300000011921;fill:none"
           inkscape:label="SubminorXDiv5:1:4" />
      </g>
      <g
         id="g3198"
         inkscape:label="SubMinorYGridlines">
        <path
           id="path3200"
           d="M 0,20.0 L 600.0,20.0"
           style="stroke:#000000;stroke-width:0.300000011921;fill:none"
           inkscape:label="SubminorXDiv0:0:1" />
        <path
           id="path3202"
           d="M 0,40.0 L 600.0,40.0"
           style="stroke:#000000;stroke-width:0.300000011921;fill:none"
           inkscape:label="SubminorXDiv0:0:2" />
        <path
           id="path3204"
           d="M 0,60.0 L 600.0,60.0"
           style="stroke:#000000;stroke-width:0.300000011921;fill:none"
           inkscape:label="SubminorXDiv0:0:3" />
        <path
           id="path3206"
           d="M 0,80.0 L 600.0,80.0"
           style="stroke:#000000;stroke-width:0.300000011921;fill:none"
           inkscape:label="SubminorXDiv0:0:4" />
        <path
           id="path3208"
           d="M 0,120.0 L 600.0,120.0"
           style="stroke:#000000;stroke-width:0.300000011921;fill:none"
           inkscape:label="SubminorXDiv1:0:1" />
        <path
           id="path3210"
           d="M 0,140.0 L 600.0,140.0"
           style="stroke:#000000;stroke-width:0.300000011921;fill:none"
           inkscape:label="SubminorXDiv1:0:2" />
        <path
           id="path3212"
           d="M 0,160.0 L 600.0,160.0"
           style="stroke:#000000;stroke-width:0.300000011921;fill:none"
           inkscape:label="SubminorXDiv1:0:3" />
        <path
           id="path3214"
           d="M 0,180.0 L 600.0,180.0"
           style="stroke:#000000;stroke-width:0.300000011921;fill:none"
           inkscape:label="SubminorXDiv1:0:4" />
        <path
           id="path3216"
           d="M 0,220.0 L 600.0,220.0"
           style="stroke:#000000;stroke-width:0.300000011921;fill:none"
           inkscape:label="SubminorXDiv2:0:1" />
        <path
           id="path3218"
           d="M 0,240.0 L 600.0,240.0"
           style="stroke:#000000;stroke-width:0.300000011921;fill:none"
           inkscape:label="SubminorXDiv2:0:2" />
        <path
           id="path3220"
           d="M 0,260.0 L 600.0,260.0"
           style="stroke:#000000;stroke-width:0.300000011921;fill:none"
           inkscape:label="SubminorXDiv2:0:3" />
        <path
           id="path3222"
           d="M 0,280.0 L 600.0,280.0"
           style="stroke:#000000;stroke-width:0.300000011921;fill:none"
           inkscape:label="SubminorXDiv2:0:4" />
        <path
           id="path3224"
           d="M 0,320.0 L 600.0,320.0"
           style="stroke:#000000;stroke-width:0.300000011921;fill:none"
           inkscape:label="SubminorXDiv3:0:1" />
        <path
           id="path3226"
           d="M 0,340.0 L 600.0,340.0"
           style="stroke:#000000;stroke-width:0.300000011921;fill:none"
           inkscape:label="SubminorXDiv3:0:2" />
        <path
           id="path3228"
           d="M 0,360.0 L 600.0,360.0"
           style="stroke:#000000;stroke-width:0.300000011921;fill:none"
           inkscape:label="SubminorXDiv3:0:3" />
        <path
           id="path3230"
           d="M 0,380.0 L 600.0,380.0"
           style="stroke:#000000;stroke-width:0.300000011921;fill:none"
           inkscape:label="SubminorXDiv3:0:4" />
        <path
           id="path3232"
           d="M 0,420.0 L 600.0,420.0"
           style="stroke:#000000;stroke-width:0.300000011921;fill:none"
           inkscape:label="SubminorXDiv4:0:1" />
        <path
           id="path3234"
           d="M 0,440.0 L 600.0,440.0"
           style="stroke:#000000;stroke-width:0.300000011921;fill:none"
           inkscape:label="SubminorXDiv4:0:2" />
        <path
           id="path3236"
           d="M 0,460.0 L 600.0,460.0"
           style="stroke:#000000;stroke-width:0.300000011921;fill:none"
           inkscape:label="SubminorXDiv4:0:3" />
        <path
           id="path3238"
           d="M 0,480.0 L 600.0,480.0"
           style="stroke:#000000;stroke-width:0.300000011921;fill:none"
           inkscape:label="SubminorXDiv4:0:4" />
      </g>
      <rect
         id="rect3240"
         x="0"
         y="0"
         inkscape:label="Border"
         height="500.0"
         width="600.0"
         style="stroke:#000000;stroke-width:3.0;fill:none" />
    </g>
    <g
       inkscape:label="Grid_Polar:X6:Y5"
       transform="translate(-158.26772,-108.26771)"
       id="g3454">
      <g
         inkscape:label="MajorXGridlines"
         id="g3456">
        <path
           inkscape:label="MajorXDiv1"
           style="stroke:#000000;stroke-width:2.0;fill:none"
           d="M 100.0,0 L 100.0,500.0"
           id="path3458" />
        <path
           inkscape:label="MajorXDiv2"
           style="stroke:#000000;stroke-width:2.0;fill:none"
           d="M 200.0,0 L 200.0,500.0"
           id="path3460" />
        <path
           inkscape:label="MajorXDiv3"
           style="stroke:#000000;stroke-width:2.0;fill:none"
           d="M 300.0,0 L 300.0,500.0"
           id="path3462" />
        <path
           inkscape:label="MajorXDiv4"
           style="stroke:#000000;stroke-width:2.0;fill:none"
           d="M 400.0,0 L 400.0,500.0"
           id="path3464" />
        <path
           inkscape:label="MajorXDiv5"
           style="stroke:#000000;stroke-width:2.0;fill:none"
           d="M 500.0,0 L 500.0,500.0"
           id="path3466" />
      </g>
      <g
         inkscape:label="MajorYGridlines"
         id="g3468">
        <path
           inkscape:label="MajorYDiv1"
           style="stroke:#000000;stroke-width:2.0;fill:none"
           d="M 0,100.0 L 600.0,100.0"
           id="path3470" />
        <path
           inkscape:label="MajorYDiv2"
           style="stroke:#000000;stroke-width:2.0;fill:none"
           d="M 0,200.0 L 600.0,200.0"
           id="path3472" />
        <path
           inkscape:label="MajorYDiv3"
           style="stroke:#000000;stroke-width:2.0;fill:none"
           d="M 0,300.0 L 600.0,300.0"
           id="path3474" />
        <path
           inkscape:label="MajorYDiv4"
           style="stroke:#000000;stroke-width:2.0;fill:none"
           d="M 0,400.0 L 600.0,400.0"
           id="path3476" />
      </g>
      <g
         inkscape:label="MinorXGridlines"
         id="g3478">
        <path
           inkscape:label="MinorXDiv0:1"
           style="stroke:#000000;stroke-width:1.0;fill:none"
           d="M 50.0,0 L 50.0,500.0"
           id="path3480" />
        <path
           inkscape:label="MinorXDiv1:1"
           style="stroke:#000000;stroke-width:1.0;fill:none"
           d="M 150.0,0 L 150.0,500.0"
           id="path3482" />
        <path
           inkscape:label="MinorXDiv2:1"
           style="stroke:#000000;stroke-width:1.0;fill:none"
           d="M 250.0,0 L 250.0,500.0"
           id="path3484" />
        <path
           inkscape:label="MinorXDiv3:1"
           style="stroke:#000000;stroke-width:1.0;fill:none"
           d="M 350.0,0 L 350.0,500.0"
           id="path3486" />
        <path
           inkscape:label="MinorXDiv4:1"
           style="stroke:#000000;stroke-width:1.0;fill:none"
           d="M 450.0,0 L 450.0,500.0"
           id="path3488" />
        <path
           inkscape:label="MinorXDiv5:1"
           style="stroke:#000000;stroke-width:1.0;fill:none"
           d="M 550.0,0 L 550.0,500.0"
           id="path3490" />
      </g>
      <g
         inkscape:label="SubMinorXGridlines"
         id="g3492">
        <path
           inkscape:label="SubminorXDiv0:0:1"
           style="stroke:#000000;stroke-width:0.300000011921;fill:none"
           d="M 10.0,0 L 10.0,500.0"
           id="path3494" />
        <path
           inkscape:label="SubminorXDiv0:0:2"
           style="stroke:#000000;stroke-width:0.300000011921;fill:none"
           d="M 20.0,0 L 20.0,500.0"
           id="path3496" />
        <path
           inkscape:label="SubminorXDiv0:0:3"
           style="stroke:#000000;stroke-width:0.300000011921;fill:none"
           d="M 30.0,0 L 30.0,500.0"
           id="path3498" />
        <path
           inkscape:label="SubminorXDiv0:0:4"
           style="stroke:#000000;stroke-width:0.300000011921;fill:none"
           d="M 40.0,0 L 40.0,500.0"
           id="path3500" />
        <path
           inkscape:label="SubminorXDiv0:1:1"
           style="stroke:#000000;stroke-width:0.300000011921;fill:none"
           d="M 60.0,0 L 60.0,500.0"
           id="path3502" />
        <path
           inkscape:label="SubminorXDiv0:1:2"
           style="stroke:#000000;stroke-width:0.300000011921;fill:none"
           d="M 70.0,0 L 70.0,500.0"
           id="path3504" />
        <path
           inkscape:label="SubminorXDiv0:1:3"
           style="stroke:#000000;stroke-width:0.300000011921;fill:none"
           d="M 80.0,0 L 80.0,500.0"
           id="path3506" />
        <path
           inkscape:label="SubminorXDiv0:1:4"
           style="stroke:#000000;stroke-width:0.300000011921;fill:none"
           d="M 90.0,0 L 90.0,500.0"
           id="path3508" />
        <path
           inkscape:label="SubminorXDiv1:0:1"
           style="stroke:#000000;stroke-width:0.300000011921;fill:none"
           d="M 110.0,0 L 110.0,500.0"
           id="path3510" />
        <path
           inkscape:label="SubminorXDiv1:0:2"
           style="stroke:#000000;stroke-width:0.300000011921;fill:none"
           d="M 120.0,0 L 120.0,500.0"
           id="path3512" />
        <path
           inkscape:label="SubminorXDiv1:0:3"
           style="stroke:#000000;stroke-width:0.300000011921;fill:none"
           d="M 130.0,0 L 130.0,500.0"
           id="path3514" />
        <path
           inkscape:label="SubminorXDiv1:0:4"
           style="stroke:#000000;stroke-width:0.300000011921;fill:none"
           d="M 140.0,0 L 140.0,500.0"
           id="path3516" />
        <path
           inkscape:label="SubminorXDiv1:1:1"
           style="stroke:#000000;stroke-width:0.300000011921;fill:none"
           d="M 160.0,0 L 160.0,500.0"
           id="path3518" />
        <path
           inkscape:label="SubminorXDiv1:1:2"
           style="stroke:#000000;stroke-width:0.300000011921;fill:none"
           d="M 170.0,0 L 170.0,500.0"
           id="path3520" />
        <path
           inkscape:label="SubminorXDiv1:1:3"
           style="stroke:#000000;stroke-width:0.300000011921;fill:none"
           d="M 180.0,0 L 180.0,500.0"
           id="path3522" />
        <path
           inkscape:label="SubminorXDiv1:1:4"
           style="stroke:#000000;stroke-width:0.300000011921;fill:none"
           d="M 190.0,0 L 190.0,500.0"
           id="path3524" />
        <path
           inkscape:label="SubminorXDiv2:0:1"
           style="stroke:#000000;stroke-width:0.300000011921;fill:none"
           d="M 210.0,0 L 210.0,500.0"
           id="path3526" />
        <path
           inkscape:label="SubminorXDiv2:0:2"
           style="stroke:#000000;stroke-width:0.300000011921;fill:none"
           d="M 220.0,0 L 220.0,500.0"
           id="path3528" />
        <path
           inkscape:label="SubminorXDiv2:0:3"
           style="stroke:#000000;stroke-width:0.300000011921;fill:none"
           d="M 230.0,0 L 230.0,500.0"
           id="path3530" />
        <path
           inkscape:label="SubminorXDiv2:0:4"
           style="stroke:#000000;stroke-width:0.300000011921;fill:none"
           d="M 240.0,0 L 240.0,500.0"
           id="path3532" />
        <path
           inkscape:label="SubminorXDiv2:1:1"
           style="stroke:#000000;stroke-width:0.300000011921;fill:none"
           d="M 260.0,0 L 260.0,500.0"
           id="path3534" />
        <path
           inkscape:label="SubminorXDiv2:1:2"
           style="stroke:#000000;stroke-width:0.300000011921;fill:none"
           d="M 270.0,0 L 270.0,500.0"
           id="path3536" />
        <path
           inkscape:label="SubminorXDiv2:1:3"
           style="stroke:#000000;stroke-width:0.300000011921;fill:none"
           d="M 280.0,0 L 280.0,500.0"
           id="path3538" />
        <path
           inkscape:label="SubminorXDiv2:1:4"
           style="stroke:#000000;stroke-width:0.300000011921;fill:none"
           d="M 290.0,0 L 290.0,500.0"
           id="path3540" />
        <path
           inkscape:label="SubminorXDiv3:0:1"
           style="stroke:#000000;stroke-width:0.300000011921;fill:none"
           d="M 310.0,0 L 310.0,500.0"
           id="path3542" />
        <path
           inkscape:label="SubminorXDiv3:0:2"
           style="stroke:#000000;stroke-width:0.300000011921;fill:none"
           d="M 320.0,0 L 320.0,500.0"
           id="path3544" />
        <path
           inkscape:label="SubminorXDiv3:0:3"
           style="stroke:#000000;stroke-width:0.300000011921;fill:none"
           d="M 330.0,0 L 330.0,500.0"
           id="path3546" />
        <path
           inkscape:label="SubminorXDiv3:0:4"
           style="stroke:#000000;stroke-width:0.300000011921;fill:none"
           d="M 340.0,0 L 340.0,500.0"
           id="path3548" />
        <path
           inkscape:label="SubminorXDiv3:1:1"
           style="stroke:#000000;stroke-width:0.300000011921;fill:none"
           d="M 360.0,0 L 360.0,500.0"
           id="path3550" />
        <path
           inkscape:label="SubminorXDiv3:1:2"
           style="stroke:#000000;stroke-width:0.300000011921;fill:none"
           d="M 370.0,0 L 370.0,500.0"
           id="path3552" />
        <path
           inkscape:label="SubminorXDiv3:1:3"
           style="stroke:#000000;stroke-width:0.300000011921;fill:none"
           d="M 380.0,0 L 380.0,500.0"
           id="path3554" />
        <path
           inkscape:label="SubminorXDiv3:1:4"
           style="stroke:#000000;stroke-width:0.300000011921;fill:none"
           d="M 390.0,0 L 390.0,500.0"
           id="path3556" />
        <path
           inkscape:label="SubminorXDiv4:0:1"
           style="stroke:#000000;stroke-width:0.300000011921;fill:none"
           d="M 410.0,0 L 410.0,500.0"
           id="path3558" />
        <path
           inkscape:label="SubminorXDiv4:0:2"
           style="stroke:#000000;stroke-width:0.300000011921;fill:none"
           d="M 420.0,0 L 420.0,500.0"
           id="path3560" />
        <path
           inkscape:label="SubminorXDiv4:0:3"
           style="stroke:#000000;stroke-width:0.300000011921;fill:none"
           d="M 430.0,0 L 430.0,500.0"
           id="path3562" />
        <path
           inkscape:label="SubminorXDiv4:0:4"
           style="stroke:#000000;stroke-width:0.300000011921;fill:none"
           d="M 440.0,0 L 440.0,500.0"
           id="path3564" />
        <path
           inkscape:label="SubminorXDiv4:1:1"
           style="stroke:#000000;stroke-width:0.300000011921;fill:none"
           d="M 460.0,0 L 460.0,500.0"
           id="path3566" />
        <path
           inkscape:label="SubminorXDiv4:1:2"
           style="stroke:#000000;stroke-width:0.300000011921;fill:none"
           d="M 470.0,0 L 470.0,500.0"
           id="path3568" />
        <path
           inkscape:label="SubminorXDiv4:1:3"
           style="stroke:#000000;stroke-width:0.300000011921;fill:none"
           d="M 480.0,0 L 480.0,500.0"
           id="path3570" />
        <path
           inkscape:label="SubminorXDiv4:1:4"
           style="stroke:#000000;stroke-width:0.300000011921;fill:none"
           d="M 490.0,0 L 490.0,500.0"
           id="path3572" />
        <path
           inkscape:label="SubminorXDiv5:0:1"
           style="stroke:#000000;stroke-width:0.300000011921;fill:none"
           d="M 510.0,0 L 510.0,500.0"
           id="path3574" />
        <path
           inkscape:label="SubminorXDiv5:0:2"
           style="stroke:#000000;stroke-width:0.300000011921;fill:none"
           d="M 520.0,0 L 520.0,500.0"
           id="path3576" />
        <path
           inkscape:label="SubminorXDiv5:0:3"
           style="stroke:#000000;stroke-width:0.300000011921;fill:none"
           d="M 530.0,0 L 530.0,500.0"
           id="path3578" />
        <path
           inkscape:label="SubminorXDiv5:0:4"
           style="stroke:#000000;stroke-width:0.300000011921;fill:none"
           d="M 540.0,0 L 540.0,500.0"
           id="path3580" />
        <path
           inkscape:label="SubminorXDiv5:1:1"
           style="stroke:#000000;stroke-width:0.300000011921;fill:none"
           d="M 560.0,0 L 560.0,500.0"
           id="path3582" />
        <path
           inkscape:label="SubminorXDiv5:1:2"
           style="stroke:#000000;stroke-width:0.300000011921;fill:none"
           d="M 570.0,0 L 570.0,500.0"
           id="path3584" />
        <path
           inkscape:label="SubminorXDiv5:1:3"
           style="stroke:#000000;stroke-width:0.300000011921;fill:none"
           d="M 580.0,0 L 580.0,500.0"
           id="path3586" />
        <path
           inkscape:label="SubminorXDiv5:1:4"
           style="stroke:#000000;stroke-width:0.300000011921;fill:none"
           d="M 590.0,0 L 590.0,500.0"
           id="path3588" />
      </g>
      <g
         inkscape:label="SubMinorYGridlines"
         id="g3590">
        <path
           inkscape:label="SubminorXDiv0:0:1"
           style="stroke:#000000;stroke-width:0.300000011921;fill:none"
           d="M 0,20.0 L 600.0,20.0"
           id="path3592" />
        <path
           inkscape:label="SubminorXDiv0:0:2"
           style="stroke:#000000;stroke-width:0.300000011921;fill:none"
           d="M 0,40.0 L 600.0,40.0"
           id="path3594" />
        <path
           inkscape:label="SubminorXDiv0:0:3"
           style="stroke:#000000;stroke-width:0.300000011921;fill:none"
           d="M 0,60.0 L 600.0,60.0"
           id="path3596" />
        <path
           inkscape:label="SubminorXDiv0:0:4"
           style="stroke:#000000;stroke-width:0.300000011921;fill:none"
           d="M 0,80.0 L 600.0,80.0"
           id="path3598" />
        <path
           inkscape:label="SubminorXDiv1:0:1"
           style="stroke:#000000;stroke-width:0.300000011921;fill:none"
           d="M 0,120.0 L 600.0,120.0"
           id="path3600" />
        <path
           inkscape:label="SubminorXDiv1:0:2"
           style="stroke:#000000;stroke-width:0.300000011921;fill:none"
           d="M 0,140.0 L 600.0,140.0"
           id="path3602" />
        <path
           inkscape:label="SubminorXDiv1:0:3"
           style="stroke:#000000;stroke-width:0.300000011921;fill:none"
           d="M 0,160.0 L 600.0,160.0"
           id="path3604" />
        <path
           inkscape:label="SubminorXDiv1:0:4"
           style="stroke:#000000;stroke-width:0.300000011921;fill:none"
           d="M 0,180.0 L 600.0,180.0"
           id="path3606" />
        <path
           inkscape:label="SubminorXDiv2:0:1"
           style="stroke:#000000;stroke-width:0.300000011921;fill:none"
           d="M 0,220.0 L 600.0,220.0"
           id="path3608" />
        <path
           inkscape:label="SubminorXDiv2:0:2"
           style="stroke:#000000;stroke-width:0.300000011921;fill:none"
           d="M 0,240.0 L 600.0,240.0"
           id="path3610" />
        <path
           inkscape:label="SubminorXDiv2:0:3"
           style="stroke:#000000;stroke-width:0.300000011921;fill:none"
           d="M 0,260.0 L 600.0,260.0"
           id="path3612" />
        <path
           inkscape:label="SubminorXDiv2:0:4"
           style="stroke:#000000;stroke-width:0.300000011921;fill:none"
           d="M 0,280.0 L 600.0,280.0"
           id="path3614" />
        <path
           inkscape:label="SubminorXDiv3:0:1"
           style="stroke:#000000;stroke-width:0.300000011921;fill:none"
           d="M 0,320.0 L 600.0,320.0"
           id="path3616" />
        <path
           inkscape:label="SubminorXDiv3:0:2"
           style="stroke:#000000;stroke-width:0.300000011921;fill:none"
           d="M 0,340.0 L 600.0,340.0"
           id="path3618" />
        <path
           inkscape:label="SubminorXDiv3:0:3"
           style="stroke:#000000;stroke-width:0.300000011921;fill:none"
           d="M 0,360.0 L 600.0,360.0"
           id="path3620" />
        <path
           inkscape:label="SubminorXDiv3:0:4"
           style="stroke:#000000;stroke-width:0.300000011921;fill:none"
           d="M 0,380.0 L 600.0,380.0"
           id="path3622" />
        <path
           inkscape:label="SubminorXDiv4:0:1"
           style="stroke:#000000;stroke-width:0.300000011921;fill:none"
           d="M 0,420.0 L 600.0,420.0"
           id="path3624" />
        <path
           inkscape:label="SubminorXDiv4:0:2"
           style="stroke:#000000;stroke-width:0.300000011921;fill:none"
           d="M 0,440.0 L 600.0,440.0"
           id="path3626" />
        <path
           inkscape:label="SubminorXDiv4:0:3"
           style="stroke:#000000;stroke-width:0.300000011921;fill:none"
           d="M 0,460.0 L 600.0,460.0"
           id="path3628" />
        <path
           inkscape:label="SubminorXDiv4:0:4"
           style="stroke:#000000;stroke-width:0.300000011921;fill:none"
           d="M 0,480.0 L 600.0,480.0"
           id="path3630" />
      </g>
      <rect
         style="stroke:#000000;stroke-width:3.0;fill:none"
         width="600.0"
         height="500.0"
         inkscape:label="Border"
         y="0"
         x="0"
         id="rect3632" />
    </g>
    <path
       id="path3829"
       style="fill:none;fill-opacity:0.75000000;fill-rule:evenodd;stroke:#000000;stroke-linecap:butt;stroke-linejoin:miter;stroke-opacity:1.0000000;stroke-width:1pt"
       d="M 0,0 0,283.46457 M 10,0 10,283.46457 M 20,0 20,283.46457 M 30,0 30,283.46457 M 40,0 40,283.46457 M 50,0 50,283.46457 M 60,0 60,283.46457 M 70,0 70,283.46457 M 80,0 80,283.46457 M 90,0 90,283.46457 M 100,0 100,283.46457 M 110,0 110,283.46457 M 120,0 120,283.46457 M 130,0 130,283.46457 M 140,0 140,283.46457 M 150,0 150,283.46457 M 160,0 160,283.46457 M 170,0 170,283.46457 M 180,0 180,283.46457 M 190,0 190,283.46457 M 200,0 200,283.46457 M 210,0 210,283.46457 M 220,0 220,283.46457 M 230,0 230,283.46457 M 240,0 240,283.46457 M 250,0 250,283.46457 M 260,0 260,283.46457 M 270,0 270,283.46457 M 280,0 280,283.46457 M 0,0 283.46457,0 M 0,10 283.46457,10 M 0,20 283.46457,20 M 0,30 283.46457,30 M 0,40 283.46457,40 M 0,50 283.46457,50 M 0,60 283.46457,60 M 0,70 283.46457,70 M 0,80 283.46457,80 M 0,90 283.46457,90 M 0,100 283.46457,100 M 0,110 283.46457,110 M 0,120 283.46457,120 M 0,130 283.46457,130 M 0,140 283.46457,140 M 0,150 283.46457,150 M 0,160 283.46457,160 M 0,170 283.46457,170 M 0,180 283.46457,180 M 0,190 283.46457,190 M 0,200 283.46457,200 M 0,210 283.46457,210 M 0,220 283.46457,220 M 0,230 283.46457,230 M 0,240 283.46457,240 M 0,250 283.46457,250 M 0,260 283.46457,260 M 0,270 283.46457,270 M 0,280 l 283.46457,0" />
    <path
       id="path4029"
       d="M141.73228,141.73229L141.73228,41.73229L172.005646467,1.44874429891L208.514458121,-16.7697291017L172.005646467,1.44874429891L141.73228,41.73229L106.972233671,-2.40952297404L96.0438826754,-48.880359903L106.972233671,-2.40952297404L70.8108896115,-19.9802366112L106.972233671,-2.40952297404L141.73228,41.73229L141.73228,141.73229"
       style="stroke-linejoin:miter;stroke-opacity:1.0;fill-opacity:1.0;stroke:#000000;stroke-linecap:butt;stroke-width:1.0px;fill:none" />
  </g>
</svg>
